<svg xmlns="http://www.w3.org/2000/svg" version="1.1" width="1080px" height="1080px"
    style="shape-rendering:geometricPrecision; text-rendering:geometricPrecision; image-rendering:optimizeQuality; fill-rule:evenodd; clip-rule:evenodd"
    xmlns:xlink="http://www.w3.org/1999/xlink">
    <style>
        .backgroundColor {
            fill: #010906;
        }

        .primaryColor {
            fill: #1DD390;
        }

        .secondaryColor {
            fill: #125182;
        }

        .accentColor {
            fill: #1752A6;
        }
    </style>
    <rect width="100%" height="100%" class="backgroundColor" />
    <!-- the main part of R-->
    <g>
        <path style="opacity:1" class="primaryColor"
            d="M 507.5,186.5 C 493.833,186.5 480.167,186.5 466.5,186.5C 465.501,297.999 465.167,409.665 465.5,521.5C 482.675,521.83 499.675,521.497 516.5,520.5C 554.071,519.961 585.571,505.961 611,478.5C 616.435,471.275 621.601,463.942 626.5,456.5C 650.967,469.567 675.3,482.9 699.5,496.5C 665.632,555.471 614.965,590.971 547.5,603C 540.194,603.942 532.86,604.442 525.5,604.5C 505.5,604.5 485.5,604.5 465.5,604.5C 465.5,708.5 465.5,812.5 465.5,916.5C 437.833,916.5 410.167,916.5 382.5,916.5C 382.5,812.5 382.5,708.5 382.5,604.5C 363.326,604.17 344.326,604.503 325.5,604.5C 325.667,619.171 325.5,632.837 325,646.5C 297.126,618.96 269.626,591.127 242.5,563C 269.626,534.873 297.126,507.04 325,479.5C 325.5,493.163 325.667,506.829 325.5,520.5C 344.326,521.497 363.326,521.83 382.5,521.5C 382.833,409.665 382.499,297.999 381.5,186.5C 367.829,186.667 354.163,186.5 340.5,186C 368.04,158.126 395.873,130.626 424,103.5C 452.328,130.661 480.161,158.328 507.5,186.5 Z" />
    </g>
    <!--the upper rigth arch in R-->
    <g>
        <path style="opacity:1" class="secondaryColor"
            d="M 466.5,186.5 C 480.167,186.5 493.833,186.5 507.5,186.5C 555.873,184.581 599.539,197.415 638.5,225C 701.614,273.42 730.448,337.587 725,417.5C 721.951,445.808 713.451,472.141 699.5,496.5C 675.3,482.9 650.967,469.567 626.5,456.5C 649.562,408.312 646.062,362.312 616,318.5C 593.758,291.632 565.258,275.799 530.5,271C 509.189,269.687 488.855,269.187 465.9,269.5C 465.7,241.833 465.7,214.167 466.5,186.5 Z" />
    </g>
    <!-- the right down arrow-->
    <g>
        <path style="opacity:1" class="secondaryColor"
            d="M 525.5,604.5 C 599.632,679.132 673.632,752.965 747.5,827C 748.167,827.667 748.833,827.667 749.5,827C 758.667,817.833 767.833,808.667 777,799.5C 777.5,838.832 777.667,878.165 777.5,917.5C 738.165,917.667 698.832,917.5 659.5,917C 669,907.5 678.5,898 688,888.5C 688.667,887.833 688.667,887.167 688,886.5C 614.299,812.632 540.465,738.965 465.5,665.5C 465.5,645.5 465.5,625.5 465.5,604.5C 486.167,604.5 505.833,604.5 525.5,604.5 Z" />
    </g>
    <!-- the plus-->
    <g>
        <path style="opacity:1" class="accentColor"
            d="M 221.5,700.5 C 234.833,700.5 248.167,700.5 261.5,700.5C 261.171,715.676 261.504,730.676 262.5,745.5C 276.833,745.5 291.167,745.5 305.5,745.5C 305.5,758.167 305.5,770.833 305.5,783.5C 290.99,783.171 276.657,783.504 262.5,784.5C 262.5,799.5 262.5,814.5 262.5,829.5C 248.833,829.5 235.167,829.5 221.5,829.5C 221.5,814.167 221.5,798.833 221.5,783.5C 206.833,783.5 192.167,783.5 177.5,783.5C 177.5,770.833 177.5,758.167 177.5,745.5C 192.167,745.5 206.833,745.5 221.5,745.5C 221.5,730.5 221.5,715.5 221.5,700.5 Z" />
    </g>
    <!-- the minus-->
    <g>
        <path style="opacity:1" class="accentColor"
            d="M 795.5,746.5 C 832.833,746.5 870.167,746.5 907.5,746.5C 907.5,758.5 907.5,770.5 907.5,782.5C 870.167,782.5 832.833,782.5 795.5,782.5C 795.5,770.5 795.5,758.5 795.5,746.5 Z" />
    </g>
    <!-- times-->
    <g>
        <path style="opacity:1" class="accentColor"
            d="M 837.5,161.5 C 850.876,160.852 863.876,161.519 876.5,163.5C 873.67,177.16 871.17,190.827 869,204.5C 880.313,195.355 891.48,186.022 902.5,176.5C 909.576,186.975 915.91,197.975 921.5,209.5C 908.206,214.765 894.873,219.931 881.5,225C 894.981,229.548 908.315,234.381 921.5,239.5C 915.293,250.748 908.96,261.915 902.5,273C 900.024,272.253 897.691,270.919 895.5,269C 886.964,260.795 878.131,252.962 869,245.5C 871.675,259.718 874.175,274.051 876.5,288.5C 863.5,288.5 850.5,288.5 837.5,288.5C 840.148,274.114 842.648,259.781 845,245.5C 834.018,254.981 823.184,264.648 812.5,274.5C 805.626,262.584 798.626,250.751 791.5,239C 804.98,233.616 818.647,228.616 832.5,224C 819.179,219.726 805.845,215.559 792.5,211.5C 792.491,209.692 792.991,208.025 794,206.5C 799.596,196.3 805.429,186.3 811.5,176.5C 822.52,186.022 833.687,195.355 845,204.5C 842.833,190.158 840.333,175.825 837.5,161.5 Z" />
    </g>
    <!-- upper slash-->
    <g>
        <path style="opacity:1" class="accentColor"
            d="M 187.5,376.5C 209.345,281.784 231.512,187.117 254,90.5C 260.93,90.1858 268.096,90.5191 275.5,90.5C 282.5,90.8333 289.5,91.1667 296.5,91.5C 273.828,187.179 251.161,282.845 228.5,378.5 Z" />
    </g>
</svg>
